HIERARCHY
ROOT root
{
	OFFSET	0	13.1	24.9
	CHANNELS 6  Xposition Yposition Zposition Xrotation Yrotation Zrotation
	JOINT spine_1
	{
		OFFSET	0	9.99999	0
		CHANNELS 3  Xrotation Yrotation Zrotation
		JOINT spine_2
		{
			OFFSET	0	112	-10
			CHANNELS 3  Xrotation Yrotation Zrotation
			JOINT spine_3
			{
				OFFSET	0	206.5	19.3
				CHANNELS 3  Xrotation Yrotation Zrotation
				JOINT spine_4
				{
					OFFSET	0	110.4	14.6
					CHANNELS 3  Xrotation Yrotation Zrotation
					JOINT neck_1
					{
						OFFSET	0	71.8	-50.3
						CHANNELS 3  Xrotation Yrotation Zrotation
						JOINT neck_2
						{
							OFFSET	0	86.2	-25.8
							CHANNELS 3  Xrotation Yrotation Zrotation
							JOINT head_ee
							{
								OFFSET	0	179.8	-8.7
								CHANNELS 3  Xrotation Yrotation Zrotation
								End Site
								{
									OFFSET	1	0	0
								}
							}
						}
					}
					JOINT left_clavicle
					{
						OFFSET	-43.2	22.4	-70.8
						CHANNELS 3  Xrotation Yrotation Zrotation
						JOINT left_shoulder
						{
							OFFSET	-93.9	-5.79999	48.7
							CHANNELS 3  Xrotation Yrotation Zrotation
							JOINT left_elbow
							{
								OFFSET	-291.4	-30.8	15.2
								CHANNELS 3  Xrotation Yrotation Zrotation
								JOINT left_lowarm_twist
								{
									OFFSET	-110.7	-3.89999	13.6
									CHANNELS 3  Xrotation Yrotation Zrotation
									JOINT left_hand
									{
										OFFSET	-110.7	-3.89999	13.6
										CHANNELS 3  Xrotation Yrotation Zrotation
										JOINT left_ee
										{
											OFFSET	-80.8	-5.10001	12.1
											CHANNELS 3  Xrotation Yrotation Zrotation
											End Site
											{
												OFFSET	1	0	0
											}
										}
									}
								}
							}
						}
					}
					JOINT right_clavicle
					{
						OFFSET	43.2	22.4	-70.8
						CHANNELS 3  Xrotation Yrotation Zrotation
						JOINT right_shoulder
						{
							OFFSET	93.9	-5.79999	48.7
							CHANNELS 3  Xrotation Yrotation Zrotation
							JOINT right_elbow
							{
								OFFSET	291.4	-30.8	15.2
								CHANNELS 3  Xrotation Yrotation Zrotation
								JOINT right_lowarm_twist
								{
									OFFSET	110.7	-3.89999	13.6
									CHANNELS 3  Xrotation Yrotation Zrotation
									JOINT right_hand
									{
										OFFSET	110.7	-3.89999	13.6
										CHANNELS 3  Xrotation Yrotation Zrotation
										JOINT right_ee
										{
											OFFSET	80.8	-5.10001	12.1
											CHANNELS 3  Xrotation Yrotation Zrotation
											End Site
											{
												OFFSET	1	0	0
											}
										}
									}
								}
							}
						}
					}
				}
			}
		}
	}
	JOINT left_hip
	{
		OFFSET	-82.8	-127.5	0.300001
		CHANNELS 3  Xrotation Yrotation Zrotation
		JOINT left_knee
		{
			OFFSET	-28.2	-396.7	2.2
			CHANNELS 3  Xrotation Yrotation Zrotation
			JOINT left_ankle
			{
				OFFSET	-11.7	-411.3	35.4
				CHANNELS 3  Xrotation Yrotation Zrotation
				JOINT left_toes
				{
					OFFSET	0	-60	-88.6
					CHANNELS 3  Xrotation Yrotation Zrotation
					JOINT left_foot_ee
					{
						OFFSET	-22.5	-16.5	-42.2
						CHANNELS 3  Xrotation Yrotation Zrotation
						End Site
						{
							OFFSET	1	0	0
						}
					}
				}
			}
		}
	}
	JOINT right_hip
	{
		OFFSET	82.8	-127.5	0.300001
		CHANNELS 3  Xrotation Yrotation Zrotation
		JOINT right_knee
		{
			OFFSET	28.2	-396.7	2.2
			CHANNELS 3  Xrotation Yrotation Zrotation
			JOINT right_ankle
			{
				OFFSET	11.7	-411.3	35.4
				CHANNELS 3  Xrotation Yrotation Zrotation
				JOINT right_toes
				{
					OFFSET	0	-60	-88.6
					CHANNELS 3  Xrotation Yrotation Zrotation
					JOINT right_foot_ee
					{
						OFFSET	22.5	-16.5	-42.2
						CHANNELS 3  Xrotation Yrotation Zrotation
						End Site
						{
							OFFSET	1	0	0
						}
					}
				}
			}
		}
	}
}
MOTION
Frames: 9
Frame Time: 0.02
3574.42 741.953 -1474.73 2.67624316679 81.2104624715 0.0540357743925 -0.585371 0.110104 -0.223901 -0.585352 0.124128 -0.216441 -0.585826 0.168735 -0.183801 -0.585847 0.13759 -0.208143 -10.3338 11.6188 -1.32085 -10.5197 22.7901 1.74079 -0.0 0.0 -0.0 4.17134 22.3441 8.4684 14.5182 -32.0627 72.5542 1.8934 -43.1613 0.748968 -37.1978 -2.65819 3.85222 2.25121 -3.89177 13.6343 -0.0 0.0 -0.0 10.9841 -9.21729 -20.8177 -21.7687 14.2327 -57.9983 0.188734 5.34138 -0.00880374 -79.4555 7.75271 -5.28674 -11.4224 -28.8961 69.4337 0.0 0.0 0.0 -5.82458 16.1886 -5.98878 7.31716 -0.369679 -1.06077 20.5349 -26.1878 -3.34216 -5.13676 0.0 0.0 -0.0 0.0 -0.0 8.69927 -7.20778 -2.5251 -11.7715 -0.302934 -1.77795 15.1502 17.0016 2.32116 -0.985547 0.0 0.0 0.0 0.0 0.0 
3568.305702 740.388 -1480.26199421 0.201900729585 82.2254463436 2.20366211435 -0.512924 0.0804076 -0.23522 -0.512898 0.0952122 -0.229626 -0.513278 0.143175 -0.203211 -0.513319 0.109284 -0.223272 -9.79005 11.4466 -1.23167 -9.93758 22.3712 1.6684 -0.0 0.0 -0.0 3.89834 22.8051 8.07876 13.1522 -33.1772 73.152 1.96375 -44.2048 0.797557 -37.8263 -2.72301 3.90021 2.26609 -3.59229 13.862 -0.0 0.0 -0.0 11.264 -8.9446 -21.3941 -21.3344 13.3986 -58.121 0.183611 5.19719 -0.00833314 -80.0876 7.83295 -5.27855 -11.4022 -28.8044 69.3659 0.0 0.0 0.0 -5.65222 15.9283 -6.05122 7.1774 -0.361355 -1.04097 22.6901 -25.3937 -3.61434 -4.43037 0.0 0.0 -0.0 0.0 -0.0 8.40327 -8.19661 -2.49151 -12.5674 -0.310145 -1.89986 17.3135 14.1887 2.57129 -0.795681 0.0 0.0 0.0 0.0 0.0 
3568.37840542 740.388 -1480.3413042 0.184302601715 81.4778192111 2.22143934013 -0.512924 0.0804076 -0.23522 -0.512898 0.0952122 -0.229626 -0.513278 0.143175 -0.203211 -0.513319 0.109284 -0.223272 -9.79005 11.4466 -1.23167 -9.93758 22.3712 1.6684 -0.0 0.0 -0.0 3.89834 22.8051 8.07876 13.1522 -33.1772 73.152 1.96375 -44.2048 0.797557 -37.8263 -2.72301 3.90021 2.26609 -3.59229 13.862 -0.0 0.0 -0.0 11.264 -8.9446 -21.3941 -21.3344 13.3986 -58.121 0.183611 5.19719 -0.00833314 -80.0876 7.83295 -5.27855 -11.4022 -28.8044 69.3659 0.0 0.0 0.0 -5.65222 15.9283 -6.05122 7.1774 -0.361355 -1.04097 22.6901 -25.3937 -3.61434 -4.43037 0.0 0.0 -0.0 0.0 -0.0 8.40327 -8.19661 -2.49151 -12.5674 -0.310145 -1.89986 17.3135 14.1887 2.57129 -0.795681 0.0 0.0 0.0 0.0 0.0 
3568.4739611 740.388 -1480.44246193 0.165668554087 80.51086498 2.24030528699 -0.512924 0.0804076 -0.23522 -0.512898 0.0952122 -0.229626 -0.513278 0.143175 -0.203211 -0.513319 0.109284 -0.223272 -9.79005 11.4466 -1.23167 -9.93758 22.3712 1.6684 -0.0 0.0 -0.0 3.89834 22.8051 8.07876 13.1522 -33.1772 73.152 1.96375 -44.2048 0.797557 -37.8263 -2.72301 3.90021 2.26609 -3.59229 13.862 -0.0 0.0 -0.0 11.264 -8.9446 -21.3941 -21.3344 13.3986 -58.121 0.183611 5.19719 -0.00833314 -80.0876 7.83295 -5.27855 -11.4022 -28.8044 69.3659 0.0 0.0 0.0 -5.65222 15.9283 -6.05122 7.1774 -0.361355 -1.04097 22.6901 -25.3937 -3.61434 -4.43037 0.0 0.0 -0.0 0.0 -0.0 8.40327 -8.19661 -2.49151 -12.5674 -0.310145 -1.89986 17.3135 14.1887 2.57129 -0.795681 0.0 0.0 0.0 0.0 0.0 
3568.56089778 740.388 -1480.53159643 0.151958024962 79.6456633338 2.25422358696 -0.512924 0.0804076 -0.23522 -0.512898 0.0952122 -0.229626 -0.513278 0.143175 -0.203211 -0.513319 0.109284 -0.223272 -9.79005 11.4466 -1.23167 -9.93758 22.3712 1.6684 -0.0 0.0 -0.0 3.89834 22.8051 8.07876 13.1522 -33.1772 73.152 1.96375 -44.2048 0.797557 -37.8263 -2.72301 3.90021 2.26609 -3.59229 13.862 -0.0 0.0 -0.0 11.264 -8.9446 -21.3941 -21.3344 13.3986 -58.121 0.183611 5.19719 -0.00833314 -80.0876 7.83295 -5.27855 -11.4022 -28.8044 69.3659 0.0 0.0 0.0 -5.65222 15.9283 -6.05122 7.1774 -0.361355 -1.04097 22.6901 -25.3937 -3.61434 -4.43037 0.0 0.0 -0.0 0.0 -0.0 8.40327 -8.19661 -2.49151 -12.5674 -0.310145 -1.89986 17.3135 14.1887 2.57129 -0.795681 0.0 0.0 0.0 0.0 0.0 
3561.35196706 739.966 -1487.56091248 -1.91943956692 79.7029255183 4.05494059292 -0.513963 0.172467 -0.327261 -0.513924 0.192942 -0.315624 -0.515001 0.257371 -0.265717 -0.515037 0.212176 -0.303029 -8.83751 11.3142 0.796321 -8.92338 20.661 3.43022 -0.0 0.0 -0.0 3.29354 22.523 7.22481 11.8554 -33.99 73.4119 1.95841 -44.1269 0.793838 -37.8333 -2.72374 3.90074 2.16615 -4.76668 12.6798 -0.0 0.0 -0.0 11.4891 -8.46128 -21.8977 -20.5158 13.3417 -58.6228 0.18471 5.22813 -0.00843311 -81.041 7.95375 -5.26451 -11.3235 -28.3217 69.5886 0.0 0.0 0.0 -5.61454 15.3864 -6.18699 6.464 -0.319618 -0.939583 22.5821 -24.2142 -3.55426 -4.66394 0.0 0.0 -0.0 0.0 -0.0 8.18297 -8.53007 -2.45711 -13.4751 -0.3163 -2.039 19.4146 10.4364 2.78805 1.2346 -0.0 -0.0 0.0 0.0 0.0 
3561.63672154 739.966 -1487.84463274 -1.71295022398 78.4459539356 3.84465204468 -0.513963 0.172467 -0.327261 -0.513924 0.192942 -0.315624 -0.515001 0.257371 -0.265717 -0.515037 0.212176 -0.303029 -8.83751 11.3142 0.796321 -8.92338 20.661 3.43022 -0.0 0.0 -0.0 3.29354 22.523 7.22481 11.8554 -33.99 73.4119 1.95841 -44.1269 0.793838 -37.8333 -2.72374 3.90074 2.16615 -4.76668 12.6798 -0.0 0.0 -0.0 11.4891 -8.46128 -21.8977 -20.5158 13.3417 -58.6228 0.18471 5.22813 -0.00843311 -81.041 7.95375 -5.26451 -11.3235 -28.3217 69.5886 0.0 0.0 0.0 -5.61454 15.3864 -6.18699 6.464 -0.319618 -0.939583 22.5821 -24.2142 -3.55426 -4.66394 0.0 0.0 -0.0 0.0 -0.0 8.18297 -8.53007 -2.45711 -13.4751 -0.3163 -2.039 19.4146 10.4364 2.78805 1.2346 -0.0 -0.0 0.0 0.0 0.0 
3550.57947831 736.871 -1496.82632607 -4.66843763847 79.9922474395 6.31587675447 -0.545336 0.130996 -0.304521 -0.545297 0.150108 -0.295568 -0.546075 0.211322 -0.255414 -0.546127 0.168332 -0.285582 -6.65321 11.6762 1.78682 -6.63561 20.381 4.10837 -0.0 0.0 -0.0 2.65243 22.968 6.33683 11.0774 -35.7739 74.2649 1.95134 -44.0233 0.788919 -39.0858 -2.85447 3.99423 2.26389 -4.0515 13.6556 -0.0 0.0 -0.0 11.6975 -7.83901 -22.392 -19.8472 12.1779 -58.1951 0.180955 5.12242 -0.00809435 -81.7679 8.04566 -5.25245 -11.1359 -27.2841 69.5562 0.0 0.0 0.0 -5.36189 14.8662 -6.62292 6.16803 -0.302675 -0.897371 25.0694 -26.4708 -3.98245 -4.96585 0.0 0.0 -0.0 0.0 -0.0 7.89579 -10.2627 -2.18087 -14.0967 -0.319243 -2.13432 23.3555 7.69051 3.24069 0.430573 -0.0 -0.0 0.0 0.0 0.0 
3541.75202302 731.416 -1502.85441786 -7.62217230843 81.1437394351 8.97598000983 -0.507217 -0.0295588 -0.332493 -0.507156 -0.00834158 -0.3337 -0.50707 0.0648816 -0.327438 -0.507219 0.0123549 -0.333576 -5.83306 11.41 1.8773 -5.78278 19.7097 4.01414 -0.0 0.0 -0.0 1.94586 22.8355 5.34742 9.73107 -37.5129 74.6699 1.93766 -43.822 0.779428 -39.3267 -2.87984 4.01188 2.23605 -3.82816 13.5558 -0.0 0.0 -0.0 11.7875 -7.49642 -22.6169 -19.9029 11.7319 -58.176 0.187226 5.29895 -0.00866386 -82.4082 8.12647 -5.24084 -11.055 -26.7376 69.8719 0.0 0.0 0.0 -4.71232 14.5755 -7.06046 5.88985 -0.28695 -0.85762 26.0626 -26.4396 -4.11234 -5.2131 0.0 0.0 -0.0 0.0 -0.0 7.49405 -11.2328 -1.95385 -14.5277 -0.320677 -2.20044 25.9508 5.92447 3.52302 0.769402 -0.0 -0.0 0.0 0.0 0.0 
